<?xml version="1.0"?>
<svg xmlns="http://www.w3.org/2000/svg" xmlns:xlink="http://www.w3.org/1999/xlink" xmlns:svgjs="http://svgjs.com/svgjs" version="1.1" width="512" height="512" x="0" y="0" viewBox="0 0 512 512" style="enable-background:new 0 0 512 512" xml:space="preserve" class=""><g><path xmlns="http://www.w3.org/2000/svg" d="M56,432H392v16a8,8,0,0,0,13.657,5.657l40-40a8,8,0,0,0,0-11.314l-40-40A8,8,0,0,0,392,368v16H72a8.009,8.009,0,0,1-8-8V184a24,24,0,0,0-48,0V392A40.045,40.045,0,0,0,56,432ZM32,184a8,8,0,0,1,16,0V376a24.028,24.028,0,0,0,24,24H400a8,8,0,0,0,8-8v-4.687L428.687,408,408,428.687V424a8,8,0,0,0-8-8H56a24.028,24.028,0,0,1-24-24Z" fill="#f6f6f6" data-original="#000000" style="" class=""/><path xmlns="http://www.w3.org/2000/svg" d="M496,120a40.045,40.045,0,0,0-40-40H120V64a8,8,0,0,0-13.657-5.657l-40,40a8,8,0,0,0,0,11.314l40,40A8,8,0,0,0,120,144V128H440a8.009,8.009,0,0,1,8,8V328a24,24,0,0,0,48,0ZM480,328a8,8,0,0,1-16,0V136a24.028,24.028,0,0,0-24-24H112a8,8,0,0,0-8,8v4.687L83.313,104,104,83.313V88a8,8,0,0,0,8,8H456a24.028,24.028,0,0,1,24,24Z" fill="#f6f6f6" data-original="#000000" style="" class=""/><path xmlns="http://www.w3.org/2000/svg" d="M144,256A112,112,0,1,0,256,144,112.127,112.127,0,0,0,144,256Zm208,0a96,96,0,1,1-96-96A96.108,96.108,0,0,1,352,256Z" fill="#f6f6f6" data-original="#000000" style="" class=""/><path xmlns="http://www.w3.org/2000/svg" d="M176,256a80,80,0,1,0,80-80A80.091,80.091,0,0,0,176,256Zm144,0a64,64,0,1,1-64-64A64.072,64.072,0,0,1,320,256Z" fill="#f6f6f6" data-original="#000000" style="" class=""/></g></svg>
